<svg width="22" height="22" viewBox="0 0 22 22" fill="none" xmlns="http://www.w3.org/2000/svg">
<path d="M6.11111 0C2.73627 0 0 2.73627 0 6.11111V15.8889C0 19.2637 2.73627 22 6.11111 22H15.8889C19.2637 22 22 19.2637 22 15.8889V6.11111C22 2.73627 19.2637 0 15.8889 0H6.11111ZM18.3333 2.44444C19.0077 2.44444 19.5556 2.9923 19.5556 3.66667C19.5556 4.34104 19.0077 4.88889 18.3333 4.88889C17.659 4.88889 17.1111 4.34104 17.1111 3.66667C17.1111 2.9923 17.659 2.44444 18.3333 2.44444ZM11 4.88889C14.3748 4.88889 17.1111 7.62516 17.1111 11C17.1111 14.3748 14.3748 17.1111 11 17.1111C7.62516 17.1111 4.88889 14.3748 4.88889 11C4.88889 7.62516 7.62516 4.88889 11 4.88889ZM11 7.33333C8.9751 7.33333 7.33333 8.9751 7.33333 11C7.33333 13.0249 8.9751 14.6667 11 14.6667C13.0249 14.6667 14.6667 13.0249 14.6667 11C14.6667 8.9751 13.0249 7.33333 11 7.33333Z" fill="#EF0311"/>
</svg>
